<svg xmlns="http://www.w3.org/2000/svg" viewBox="0 0 624.82 189.56"><defs><style>.cls-1,.cls-2{fill:none;}.cls-1{stroke:#231f20;stroke-width:7px;}.cls-2{stroke:#000;stroke-miterlimit:10;stroke-width:6px;}</style></defs><title>Asset 15</title><g id="Layer_2" data-name="Layer 2"><g id="Layer_3" data-name="Layer 3"><path class="cls-1" d="M139.46,135.26c0-28,21.4-50.6,52.6-50.6,28.4,0,50.2,20.4,50.2,54.4v4.61a2.79,2.79,0,0,1-2.79,2.79H181.28a2.78,2.78,0,0,0-2.26,4.43c3.35,4.35,9.53,7.77,18.44,7.77,4.72,0,14.5-2,20.09-5.3a2.77,2.77,0,0,1,3.7.89L233,171.91a2.75,2.75,0,0,1-.65,3.78c-9.87,7.07-25.7,10.37-39.11,10.37C163.06,186.06,139.46,167.06,139.46,135.26Zm52.6-23.2c-7.92,0-12,3.73-14.12,7.47a2.78,2.78,0,0,0,2.44,4.13h20.37a4.41,4.41,0,0,0,3-7.65C201.32,113.77,197.64,112.06,192.06,112.06Z"/><path class="cls-1" d="M310.46,180.87h0a2.78,2.78,0,0,0-4.41-2.26c-6.17,4.52-15.42,7.45-24.79,7.45-14.4,0-33.2-9.8-33.2-31.8,0-24,18.8-30.8,33.2-30.8,9.79,0,18.85,2.41,24.84,6.58a2.78,2.78,0,0,0,4.36-2.29v-3.69c0-6.8-6.2-12-18-12a46.2,46.2,0,0,0-24.3,7.63,2.79,2.79,0,0,1-4-1l-9.24-16.82a3.47,3.47,0,0,1,1-4.51c12.74-9,29.43-12.74,43.13-12.74,24,0,47.4,8.4,47.4,40.6v55.61a2.79,2.79,0,0,1-2.79,2.79H313.25A2.79,2.79,0,0,1,310.46,180.87Zm0-24.43v-3.36a2.71,2.71,0,0,0-.77-1.93c-2.78-2.81-8.35-4.29-13.43-4.29-6,0-12.6,2-12.6,8s6.6,7.8,12.6,7.8c5.08,0,10.65-1.48,13.43-4.29A2.71,2.71,0,0,0,310.46,156.44Z"/><path class="cls-1" d="M483.77,183.85a2.78,2.78,0,0,1-2.79-2.78V127.45c0-5.8-3-10.8-11-10.8-7.28,0-11.57,4-14.1,6.8a2.8,2.8,0,0,0-.7,1.85v55.77a2.77,2.77,0,0,1-2.78,2.78H422a2.78,2.78,0,0,1-2.79-2.78V127.45c0-5.8-2.8-10.8-11-10.8-7.09,0-11.37,4-13.89,6.8a2.76,2.76,0,0,0-.71,1.85v55.77a2.77,2.77,0,0,1-2.78,2.78H360.37a2.78,2.78,0,0,1-2.79-2.78V90a2.78,2.78,0,0,1,2.79-2.78H390.8A2.77,2.77,0,0,1,393.58,90v1.71a2.79,2.79,0,0,0,4.51,2.19,46.15,46.15,0,0,1,27.49-9.08c12,0,21,3.88,26,13a2.77,2.77,0,0,0,4.48.53,42.51,42.51,0,0,1,31.11-13.55c17.8,0,29.8,9,29.8,29v67.22a2.78,2.78,0,0,1-2.78,2.78Z"/><path d="M186.44,22.94h.6a3.69,3.69,0,0,1,3.68,3.69V58.39a3.68,3.68,0,0,1-3.65,3.69h-.6a3.69,3.69,0,0,1-3.72-3.69V26.63A3.69,3.69,0,0,1,186.44,22.94Z"/><polyline points="70.58 187.85 112.9 187.85 112.9 181.85 70.58 181.85 70.58 187.52"/><path d="M190.72,19.36H145.11a3.58,3.58,0,0,1-2.55-1.06l-2.44-2.44-.06-.06A35.43,35.43,0,0,0,115,5.43h-4.54A3.85,3.85,0,0,0,107,7.9a3.59,3.59,0,0,0,3.42,4.7H115a28.22,28.22,0,0,1,20,8.28l.06.06,4.54,4.55h0a3.59,3.59,0,0,0,2.55,1.06l48.6,0"/><path d="M187,54.92H142.12A3.63,3.63,0,0,0,139.58,56l-7,7.05a3.57,3.57,0,0,0,0,5.06h0a3.6,3.6,0,0,0,5.08,0l6-6h43.31"/><path d="M116.35,184.27V89.36l3.5-3.49a35.38,35.38,0,0,0,7.75-11.58A3.59,3.59,0,1,0,121,71.55a28.4,28.4,0,0,1-6.18,9.24l-4.55,4.54a3.55,3.55,0,0,0-1.06,2.54v96.4a3.59,3.59,0,0,0,7.17,0Z"/><path d="M74.3,184.27l-.07-96.4a3.6,3.6,0,0,0-1-2.54h0l-7.05-7a3.59,3.59,0,0,0-5.07,5.08h0l6,6,.06,94.91a3.59,3.59,0,0,0,7.18,0Z"/><path d="M134.31,39.91a10.12,10.12,0,0,0-6.77-9.54,10.12,10.12,0,0,0-9.49-13.58H97.8A10.24,10.24,0,0,0,87.94.2L70.63,3.61a35.34,35.34,0,0,0-18.28,9.77l-6,6-44.6,0c.1,2.39.13,4.78.06,7.17l46,0a3.57,3.57,0,0,0,2.54-1.06l7-7A28.18,28.18,0,0,1,72,10.65l17.3-3.41a3,3,0,0,1,2.34.48,3.07,3.07,0,0,1-1,5.52L83.46,15a4.55,4.55,0,0,0,1.08,9h33.51A2.92,2.92,0,0,1,121,26.9a2.92,2.92,0,0,1-2.58,2.9l-19.85,0a3.59,3.59,0,1,0,0,7.17l25.66,0a2.93,2.93,0,1,1,0,5.86H98.55A3.59,3.59,0,0,0,95,46.43,3.54,3.54,0,0,0,96,49a3.58,3.58,0,0,0,2.54,1H118.4A3,3,0,0,1,121,52.92a2.92,2.92,0,0,1-2.93,2.93H98.55a3.59,3.59,0,1,0,0,7.18h13a2.93,2.93,0,0,1,2.58,2.91,2.94,2.94,0,0,1-2.93,2.93H75a28.15,28.15,0,0,1-20-8.31l0,0L50.4,56h0a3.58,3.58,0,0,0-2.54-1H3.59a3.59,3.59,0,1,0,0,7.17H46.37l3.49,3.5,0,0A35.29,35.29,0,0,0,75,76h36.22a10.11,10.11,0,0,0,10.1-10.11,9.9,9.9,0,0,0-.55-3.28,10.12,10.12,0,0,0,6.75-13.2A10.12,10.12,0,0,0,134.31,39.91Z"/><polygon points="0 19.35 7.97 19.35 7.97 58.46 0 58.52 0 19.35"/><path class="cls-2" d="M588.19,126.87l-.05,38.6-23.2,0,0-38.6-33.6,0,0-21,33.6,0,0-37,23.2,0,0,37,33.6,0,0,21Z"/></g></g></svg>