<svg xmlns="http://www.w3.org/2000/svg" viewBox="0 0 261.69 261.69"><defs><style>.cls-1{fill:#29abe2;stroke-width:4px;}.cls-1,.cls-2{stroke:#29abe2;stroke-miterlimit:10;}.cls-2{fill:none;stroke-width:10px;}</style></defs><title>Asset 2</title><g id="Layer_2" data-name="Layer 2"><g id="Layer_3" data-name="Layer 3"><path class="cls-1" d="M224.55,70.69h.59a3.69,3.69,0,0,1,3.69,3.69v31.76a3.69,3.69,0,0,1-3.66,3.69h-.6a3.69,3.69,0,0,1-3.71-3.69V74.38A3.69,3.69,0,0,1,224.55,70.69Z"/><polyline class="cls-1" points="108.69 235.6 151 235.6 151 229.6 108.69 229.6 108.69 235.26"/><path class="cls-1" d="M228.83,70.27a3.17,3.17,0,0,0-3.17-3.17l-42.45,0a3.61,3.61,0,0,1-2.55-1.06l-2.43-2.44-.07-.07a35.38,35.38,0,0,0-25-10.37h-4.54a3.84,3.84,0,0,0-3.47,2.46A3.62,3.62,0,0,0,146,59.3a3.56,3.56,0,0,0,2.53,1.05h4.6a28.28,28.28,0,0,1,20,8.27l.06.06,4.54,4.56h0a3.62,3.62,0,0,0,2.54,1.05h48.61Z"/><path class="cls-1" d="M225.1,102.67H180.23a3.6,3.6,0,0,0-2.54,1l-7,7a3.59,3.59,0,0,0,0,5.07h0a3.59,3.59,0,0,0,5.07,0l6-6H225"/><path class="cls-1" d="M154.46,232V137.1l3.5-3.49A35.25,35.25,0,0,0,165.7,122a3.58,3.58,0,0,0-6.62-2.74,28.19,28.19,0,0,1-6.18,9.24l-4.56,4.54a3.6,3.6,0,0,0-1.05,2.54V232a3.59,3.59,0,1,0,7.17,0Z"/><path class="cls-1" d="M112.4,232l-.06-96.4a3.58,3.58,0,0,0-1-2.53h0l-7.05-7a3.59,3.59,0,0,0-5.07,5.07h0l6,6,.06,94.91a3.59,3.59,0,1,0,7.17,0Z"/><path class="cls-1" d="M172.42,87.65a10.12,10.12,0,0,0-6.77-9.53,10.12,10.12,0,0,0-9.49-13.58H135.9a10.23,10.23,0,0,0-2.42-15.22A10.64,10.64,0,0,0,125.72,48l-17,3.35a35.51,35.51,0,0,0-18.29,9.76l-6,6-43.17,0c.1,2.4.13,4.79.06,7.18l44.6,0a3.62,3.62,0,0,0,2.54-1.05l7-7a28.36,28.36,0,0,1,14.59-7.8L127.35,55a3.06,3.06,0,0,1,3.73,2.67A3.18,3.18,0,0,1,128.6,61l-6.86,1.68a4.68,4.68,0,0,0-3.63,4.76,4.5,4.5,0,0,0,4.54,4.25H156a3.07,3.07,0,0,1,3.11,3,2.94,2.94,0,0,1-2.58,2.84l-19.86,0a3.59,3.59,0,0,0,0,7.18l25.66,0a2.94,2.94,0,0,1,2.88,3.52,3,3,0,0,1-3,2.35H136.85a3.72,3.72,0,0,0-3.78,3.76,3.61,3.61,0,0,0,1.05,2.36,3.56,3.56,0,0,0,2.53,1.05h19.86a2.93,2.93,0,0,1-.35,5.84H136.85a3.73,3.73,0,0,0-3.78,3.76,3.61,3.61,0,0,0,1.05,2.36,3.56,3.56,0,0,0,2.53,1h13a2.93,2.93,0,0,1,1.72,5,2.9,2.9,0,0,1-2.07.86H113.09a28.28,28.28,0,0,1-20-8.3l0,0-4.54-4.56h0a3.58,3.58,0,0,0-2.53-1H41.69a3.59,3.59,0,0,0,0,7.18l42.79,0,3.49,3.5,0,0a35.3,35.3,0,0,0,25.12,10.41H149a10.32,10.32,0,0,0,10.39-9.14,10.17,10.17,0,0,0-.5-4.25,10.11,10.11,0,0,0,7.36-9.72,10.07,10.07,0,0,0-.62-3.48A10.12,10.12,0,0,0,172.42,87.65Z"/><path class="cls-1" d="M40.83,67.09h2.53a2.73,2.73,0,0,1,2.72,2.73V103.5a2.73,2.73,0,0,1-2.7,2.73l-5.27,0V69.82A2.73,2.73,0,0,1,40.83,67.09Z"/><path class="cls-2" d="M256.69,130.85A125.85,125.85,0,1,1,130.85,5,125.84,125.84,0,0,1,256.69,130.85"/></g></g></svg>