<svg xmlns="http://www.w3.org/2000/svg" xmlns:xlink="http://www.w3.org/1999/xlink" viewBox="0 0 620.58 186.94"><defs><style>.cls-1{fill:url(#linear-gradient);}.cls-2{fill:url(#linear-gradient-2);}.cls-3{fill:url(#linear-gradient-3);}.cls-4,.cls-5{fill:none;stroke-linecap:round;}.cls-4,.cls-5,.cls-6,.cls-7,.cls-8,.cls-9{stroke:#fff;stroke-miterlimit:10;}.cls-4,.cls-6,.cls-7,.cls-8,.cls-9{stroke-width:3.5px;}.cls-5{stroke-width:4px;}.cls-6{fill:url(#linear-gradient-4);}.cls-7{fill:url(#linear-gradient-5);}.cls-8{fill:url(#linear-gradient-6);}.cls-9{fill:url(#linear-gradient-7);}</style><linearGradient id="linear-gradient" x1="91.09" y1="67.54" x2="91.09" y2="182.79" gradientUnits="userSpaceOnUse"><stop offset="0" stop-color="#7f4300"/><stop offset="0.07" stop-color="#bd5014"/><stop offset="0.22" stop-color="#f15a24"/><stop offset="1" stop-color="#f15a24"/></linearGradient><linearGradient id="linear-gradient-2" x1="101.88" y1="41.28" x2="185.49" y2="26.54" gradientUnits="userSpaceOnUse"><stop offset="0" stop-color="#5b4300"/><stop offset="0.16" stop-color="#c15318"/><stop offset="0.54" stop-color="#f15a24"/><stop offset="0.94" stop-color="#f15a24"/></linearGradient><linearGradient id="linear-gradient-3" x1="65.11" y1="70.87" x2="65.11" y2="1.5" gradientUnits="userSpaceOnUse"><stop offset="0.09" stop-color="#ffca2a"/><stop offset="1" stop-color="#f5af19"/></linearGradient><linearGradient id="linear-gradient-4" x1="139.87" y1="132.64" x2="242.97" y2="136.24" gradientUnits="userSpaceOnUse"><stop offset="0" stop-color="#f15a24"/><stop offset="0.55" stop-color="#ff3143"/></linearGradient><linearGradient id="linear-gradient-5" x1="249.44" y1="134.49" x2="347.84" y2="134.49" gradientUnits="userSpaceOnUse"><stop offset="0" stop-color="#ff3143"/><stop offset="1" stop-color="#ff0067"/></linearGradient><linearGradient id="linear-gradient-6" x1="357.84" y1="133.29" x2="517.24" y2="133.29" gradientUnits="userSpaceOnUse"><stop offset="0.44" stop-color="#ff0067"/><stop offset="1" stop-color="#ff0067"/></linearGradient><linearGradient id="linear-gradient-7" x1="528.28" y1="116.88" x2="619.02" y2="115.3" gradientUnits="userSpaceOnUse"><stop offset="0.45" stop-color="#ff0067"/><stop offset="1" stop-color="#ff3143"/></linearGradient></defs><title>Asset 18</title><g id="Layer_2" data-name="Layer 2"><g id="Layer_7" data-name="Layer 7"><path class="cls-1" d="M119.12,76.35a17.19,17.19,0,0,1-1.56,2l-5.31,5.7a7.2,7.2,0,0,0-1.47,4.35v91.75a2.6,2.6,0,0,1-2.6,2.6H70.63a2.16,2.16,0,0,1-2.16-2.16V88.33a6.1,6.1,0,0,0-1.72-4.25l-5.4-5.56-2.71-11h64.9Z"/><path class="cls-2" d="M109.75,6.93h4.75a19.26,19.26,0,0,1,8.14,1.81L127.47,11A32.72,32.72,0,0,1,136,16.75l3.62,3.4a2.67,2.67,0,0,0,1.83.73h40.79a2.68,2.68,0,0,1,2.68,2.68l0,29.82a2.68,2.68,0,0,1-2.68,2.68H141.89a2.68,2.68,0,0,0-1.91.8l-6.69,6.81a3.88,3.88,0,0,1-.31.26h0c-3.76,2.82-6.49,6.12-11.75,6.94l-4.82-.19h-9.34V9.61A2.68,2.68,0,0,1,109.75,6.93Z"/><path class="cls-3" d="M97.65,30.18l20.89-.05A3.89,3.89,0,0,0,122,28l.25-.58c.45-.9.33-1.36.38-2.82L122.24,22a4.52,4.52,0,0,0-2.94-3.26h0a3.14,3.14,0,0,0-1.1-.19l-35.67-.2a1,1,0,0,1-.94-.94v-.66a1.06,1.06,0,0,1,.82-1l9.11-2.2a3.7,3.7,0,0,0,2.75-2.81l.39-1.55a4.32,4.32,0,0,0-.83-3.79l-1.46-2a4.17,4.17,0,0,0-2.72-1.68l-.11,0a8.73,8.73,0,0,0-3.18.1L67.2,5.51A13.81,13.81,0,0,0,63.12,7L58.85,9.39A12.47,12.47,0,0,0,56.61,11l-8.85,8.3a4.52,4.52,0,0,1-3,1.21l-42.79.39-.06.06V54.5a2,2,0,0,0,2,2H44a4.27,4.27,0,0,1,2.7.95l6.24,5.64A31.09,31.09,0,0,0,65.37,69.9l.43.11a36.91,36.91,0,0,0,7,.86h36c.13,0,1.33-.19,1.46-.2a5.68,5.68,0,0,0,4.4-2.52h0c.14-.17-.11.19,0,0,1.46-2.44,1.44-3.09.84-6.45h0a3.71,3.71,0,0,0-3.93-3.11l-14.15-.07a1.12,1.12,0,0,1-1.12-1.08h0a1.12,1.12,0,0,1,1.12-1.17l21.87-.08c.57,0,1-.19,2-1.08l.91-1.34a5.46,5.46,0,0,0,.42-5.41l-.24-.5a3.92,3.92,0,0,0-3.2-2.47l-21.9,0a1.15,1.15,0,0,1-1.16-1.15h0a1,1,0,0,1,1-1h26.65a4.49,4.49,0,0,0,3.65-1.89l.42-.6a2.49,2.49,0,0,0,.45-1.42V37.39A5,5,0,0,0,127,34l-.62-.58a4.11,4.11,0,0,0-2.86-1.12l-26,0a1,1,0,0,1-1-1h0A1.11,1.11,0,0,1,97.65,30.18Z"/><path class="cls-4" d="M122.1,70.78l-1.74,3.61a12.09,12.09,0,0,1-1,1.7l-2.18,3.06a8.59,8.59,0,0,1-1,1.12l-4.32,4.25a3.88,3.88,0,0,0-1,1.66h0a5.44,5.44,0,0,0-.23,1.55v95h-41a1.27,1.27,0,0,1-1.27-1.28l0-92.65a8.89,8.89,0,0,0-.71-3.49h0a3.72,3.72,0,0,0-.8-1.19l-5.47-5.47"/><path class="cls-5" d="M133,63.28l5.65-5.59a4.63,4.63,0,0,1,2-1.18l.23-.06a4.26,4.26,0,0,1,1.18-.17h41.44a1,1,0,0,0,1-1V20.81l-39.92.08-3.86-.07a1.51,1.51,0,0,1-1-.4L134,15a24,24,0,0,0-3.27-2.59l-.37-.24a29.53,29.53,0,0,0-5.76-2.95l-1.23-.46A24.58,24.58,0,0,0,118.1,7.4L116,7.1a24.73,24.73,0,0,0-3.33-.23H111a2.77,2.77,0,0,0-2.77,2.77v2.63"/><path class="cls-4" d="M81.46,17.31l8.36-3A7.23,7.23,0,0,0,92,13h0A5.46,5.46,0,0,0,93.82,10l.18-.9a5,5,0,0,0,.1-1h0a6.28,6.28,0,0,0-1.31-3.84h0a5.5,5.5,0,0,0-2.37-1.78l-.28-.11a8.44,8.44,0,0,0-4.69-.41l-15,3-3.65.82a11.29,11.29,0,0,0-1.5.46l-3,1.18a16.23,16.23,0,0,0-1.84.87l-1.54.87c-.54.31-1.07.64-1.58,1L55.52,11.4A13.05,13.05,0,0,0,54,12.7l-7.76,7.46a2.28,2.28,0,0,1-1.6.65H1.81L1.75,55.26a1.12,1.12,0,0,0,1.13,1.13h41l.57,0a3.78,3.78,0,0,1,2.33,1l1.15,1.09L49,59.64a55.82,55.82,0,0,0,6.4,5.49h0l1.84,1a35.23,35.23,0,0,0,5.31,2.31h0a29.36,29.36,0,0,0,5,1.24l3.07.48h0a16,16,0,0,0,2.58.21h35.33A10.31,10.31,0,0,0,113,69h0l.55-.53A6.08,6.08,0,0,0,115,66.21l.28-.76h0a10.73,10.73,0,0,0-.29-3.87h0l-.73-1.19a6.68,6.68,0,0,0-.72-1l-1-1.14"/><path class="cls-4" d="M81.87,18.07h33a7.88,7.88,0,0,1,2.1.29l.64.18a5.62,5.62,0,0,1,2.5,1.49l.4.42a5.24,5.24,0,0,1,1.06,1.61l.14.35a5.47,5.47,0,0,1,.34,1.11l.1.47a3,3,0,0,1,0,.42h0a7,7,0,0,1-.3,2l-.06.18a5.58,5.58,0,0,1-.5,1.18h0a6.52,6.52,0,0,1-2.17,2.26h0a6.45,6.45,0,0,1-2.47.93l-1,.15a8.89,8.89,0,0,1-1.36.1h-18"/><path class="cls-4" d="M115.83,31.24h6.5a6.64,6.64,0,0,1,1.66.22l.32.09.44.27a10.7,10.7,0,0,1,1.88,1.47l.6.58.24.4a5.93,5.93,0,0,1,.7,1.73l.06.26.14.77v.76c0,.2,0,.41,0,.61l-.09.72-.27.73a4.24,4.24,0,0,1-.43.85l-.65,1-.26.25a8.76,8.76,0,0,1-2.88,1.92h0l-.46.17-.83.27h-26"/><path class="cls-4" d="M118.62,44.43l2.17,2.33a5,5,0,0,1,1,1.51h0a5.66,5.66,0,0,1,.46,2l0,.41a4.94,4.94,0,0,1-.24,1.79h0a5.73,5.73,0,0,1-.68,1.41l-.58.86-.21.2a10.55,10.55,0,0,1-2.66,1.82l-.53.25-.6.21H96.37"/><path class="cls-6" d="M139.84,134.39c0-28,21.4-50.6,52.6-50.6,28.4,0,50.2,20.4,50.2,54.4v7.4H177c2,6.2,9,12.2,20.8,12.2,5.4,0,17.4-2.6,22.2-6.8l14.8,22.2c-9.6,8.2-26.8,12-41.2,12C163.44,185.19,139.84,166.19,139.84,134.39Zm52.6-23.2c-11,0-14.6,7.2-15.8,11.6h31.8C207.44,118.59,204,111.19,192.44,111.19Z"/><path class="cls-7" d="M311.84,182.79v-9.2c-5.4,6.8-25.2,11.6-29.2,11.6-14.4,0-33.2-9.8-33.2-31.8,0-24,18.8-30.8,33.2-30.8,12.6,0,24,4,29.2,10.6v-10c0-6.8-6.2-12-18-12-9,0-19.2,3.6-26.8,9.4l-12.2-22.2c13-10.4,31-14.6,45.6-14.6,24,0,47.4,8.4,47.4,40.6v58.4Zm0-26.2v-5.4c-2.4-3.4-8.6-5.2-14.2-5.2-6,0-12.6,2-12.6,8s6.6,7.8,12.6,7.8C303.24,161.79,309.44,160,311.84,156.59Z"/><path class="cls-8" d="M481.24,182.79v-56.4c0-5.8-3-10.8-11-10.8s-12.4,4.8-14.8,7.6v59.6h-36v-56.4c0-5.8-2.8-10.8-11-10.8-7.8,0-12.2,4.8-14.6,7.6v59.6h-36V86.19h36v11c4.2-5.4,16.4-13.4,32-13.4,13.6,0,23.4,5,27.8,17,5.6-8.4,18.2-17,33.8-17,17.8,0,29.8,9,29.8,29v70Z"/><path class="cls-9" d="M585.24,125.79v38.6H562v-38.6h-33.6v-21H562v-37h23.2v37h33.59v21Z"/></g></g></svg>