<svg id="ebc4lk76tjuw1" xmlns="http://www.w3.org/2000/svg" xmlns:xlink="http://www.w3.org/1999/xlink" viewBox="0 0 620.580000 186.940000" shape-rendering="geometricPrecision" text-rendering="geometricPrecision"><defs><linearGradient id="ebc4lk76tjuw5-fill" x1="91.090000" y1="67.540000" x2="91.090000" y2="182.790000" spreadMethod="pad" gradientUnits="userSpaceOnUse"><stop id="ebc4lk76tjuw5-fill-0" offset="0%" stop-color="rgb(127,67,0)"/><stop id="ebc4lk76tjuw5-fill-1" offset="7%" stop-color="rgb(189,80,20)"/><stop id="ebc4lk76tjuw5-fill-2" offset="22%" stop-color="rgb(241,90,36)"/><stop id="ebc4lk76tjuw5-fill-3" offset="100%" stop-color="rgb(241,90,36)"/></linearGradient><linearGradient id="ebc4lk76tjuw6-fill" x1="101.880000" y1="41.280000" x2="185.490000" y2="26.540000" spreadMethod="pad" gradientUnits="userSpaceOnUse"><stop id="ebc4lk76tjuw6-fill-0" offset="0%" stop-color="rgb(91,67,0)"/><stop id="ebc4lk76tjuw6-fill-1" offset="16%" stop-color="rgb(193,83,24)"/><stop id="ebc4lk76tjuw6-fill-2" offset="54%" stop-color="rgb(241,90,36)"/><stop id="ebc4lk76tjuw6-fill-3" offset="94%" stop-color="rgb(241,90,36)"/></linearGradient><linearGradient id="ebc4lk76tjuw8-fill" x1="65.110000" y1="70.870000" x2="65.110000" y2="1.500000" spreadMethod="pad" gradientUnits="userSpaceOnUse"><stop id="ebc4lk76tjuw8-fill-0" offset="9%" stop-color="rgb(255,202,42)"/><stop id="ebc4lk76tjuw8-fill-1" offset="100%" stop-color="rgb(245,175,25)"/></linearGradient><linearGradient id="ebc4lk76tjuw15-fill" x1="139.870000" y1="132.640000" x2="242.970000" y2="136.240000" spreadMethod="pad" gradientUnits="userSpaceOnUse"><stop id="ebc4lk76tjuw15-fill-0" offset="0%" stop-color="rgb(241,90,36)"/><stop id="ebc4lk76tjuw15-fill-1" offset="55%" stop-color="rgb(255,49,67)"/></linearGradient><linearGradient id="ebc4lk76tjuw16-fill" x1="249.440000" y1="134.490000" x2="347.840000" y2="134.490000" spreadMethod="pad" gradientUnits="userSpaceOnUse"><stop id="ebc4lk76tjuw16-fill-0" offset="0%" stop-color="rgb(255,49,67)"/><stop id="ebc4lk76tjuw16-fill-1" offset="100%" stop-color="rgb(255,0,103)"/></linearGradient><linearGradient id="ebc4lk76tjuw17-fill" x1="357.840000" y1="133.290000" x2="517.240000" y2="133.290000" spreadMethod="pad" gradientUnits="userSpaceOnUse"><stop id="ebc4lk76tjuw17-fill-0" offset="44%" stop-color="rgb(255,0,103)"/><stop id="ebc4lk76tjuw17-fill-1" offset="100%" stop-color="rgb(255,0,103)"/></linearGradient><linearGradient id="ebc4lk76tjuw18-fill" x1="528.280000" y1="116.880000" x2="619.020000" y2="115.300000" spreadMethod="pad" gradientUnits="userSpaceOnUse"><stop id="ebc4lk76tjuw18-fill-0" offset="45%" stop-color="rgb(255,0,103)"/><stop id="ebc4lk76tjuw18-fill-1" offset="100%" stop-color="rgb(255,49,67)"/></linearGradient></defs><g id="ebc4lk76tjuw2"><g id="ebc4lk76tjuw3"><g id="ebc4lk76tjuw4" transform="matrix(1 0 0 1 -0.33497691154480 184.81520044803619)"><path id="ebc4lk76tjuw5" d="M119.120000,76.350000C118.649961,77.054173,118.128542,77.722659,117.560000,78.350000L112.250000,84.050000C111.298386,85.300709,110.782122,86.828428,110.780000,88.400000L110.780000,180.150000C110.780000,181.585940,109.615940,182.750000,108.180000,182.750000L70.630000,182.750000C69.437065,182.750000,68.470000,181.782935,68.470000,180.590000L68.470000,88.330000C68.471129,86.743571,67.854170,85.219108,66.750000,84.080000L61.350000,78.520000L58.640000,67.520000L123.540000,67.520000Z" fill="url(#ebc4lk76tjuw5-fill)" stroke="none" stroke-width="1"/><path id="ebc4lk76tjuw6" d="M109.750000,6.930000L114.500000,6.930000C117.312953,6.931664,120.091400,7.549476,122.640000,8.740000L127.470000,11C130.598729,12.454914,133.477634,14.395560,136,16.750000L139.620000,20.150000C140.114632,20.617729,140.769243,20.878858,141.450000,20.880000L182.240000,20.880000C182.950780,20.880000,183.632449,21.162356,184.135046,21.664954C184.637644,22.167551,184.920000,22.849220,184.920000,23.560000L184.920000,53.380000C184.920000,54.090780,184.637644,54.772449,184.135046,55.275046C183.632449,55.777644,182.950780,56.060000,182.240000,56.060000L141.890000,56.060000C141.171863,56.059993,140.483768,56.348201,139.980000,56.860000L133.290000,63.670000C133.191259,63.761999,133.087785,63.848784,132.980000,63.930000L132.980000,63.930000C129.220000,66.750000,126.490000,70.050000,121.230000,70.870000L116.410000,70.680000L107.070000,70.680000L107.070000,9.610000C107.070000,8.899220,107.352356,8.217551,107.854954,7.714954C108.357551,7.212356,109.039220,6.930000,109.750000,6.930000Z" fill="url(#ebc4lk76tjuw6-fill)" stroke="none" stroke-width="1"/><g id="ebc4lk76tjuw7"><path id="ebc4lk76tjuw8" d="M97.650000,30.180000L118.540000,30.130000C120.001955,30.126586,121.338552,29.303767,122,28L122.250000,27.420000C122.700000,26.520000,122.580000,26.060000,122.630000,24.600000L122.240000,22C121.888914,20.478442,120.777328,19.245868,119.300000,18.740000L119.300000,18.740000C118.947624,18.611476,118.575072,18.547126,118.200000,18.550000L82.530000,18.350000C82.023607,18.320427,81.619573,17.916393,81.590000,17.410000L81.590000,16.750000C81.604788,16.269228,81.941439,15.858678,82.410000,15.750000L91.520000,13.550000C92.899667,13.218164,93.968015,12.126507,94.270000,10.740000L94.660000,9.190000C94.998104,7.866494,94.690317,6.461055,93.830000,5.400000L92.370000,3.400000C91.722530,2.500881,90.743853,1.896404,89.650000,1.720000L89.540000,1.720000C88.482823,1.558268,87.404926,1.592164,86.360000,1.820000L67.200000,5.510000C65.769919,5.788343,64.392890,6.291228,63.120000,7L58.850000,9.390000C58.046089,9.842174,57.294826,10.382143,56.610000,11L47.760000,19.300000C46.943510,20.059610,45.875027,20.490565,44.760000,20.510000L1.970000,20.900000L1.910000,20.960000L1.910000,54.500000C1.910000,55.604569,2.805431,56.500000,3.910000,56.500000L44,56.500000C44.982492,56.496610,45.936097,56.832138,46.700000,57.450000L52.940000,63.090000C56.503747,66.286747,60.757607,68.617301,65.370000,69.900000L65.800000,70.010000C68.100534,70.519443,70.444565,70.807424,72.800000,70.870000L108.800000,70.870000C108.930000,70.870000,110.130000,70.680000,110.260000,70.670000C112.041023,70.567582,113.670454,69.634363,114.660000,68.150000L114.660000,68.150000C114.800000,67.980000,114.550000,68.340000,114.660000,68.150000C116.120000,65.710000,116.100000,65.060000,115.500000,61.700000L115.500000,61.700000C115.193994,59.801470,113.488036,58.451463,111.570000,58.590000L97.420000,58.520000C96.816731,58.520385,96.321545,58.042884,96.300000,57.440000L96.300000,57.440000C96.286343,57.134393,96.398286,56.836499,96.609825,56.615516C96.821364,56.394533,97.114088,56.269695,97.420000,56.270000L119.290000,56.190000C119.860000,56.190000,120.290000,56,121.290000,55.110000L122.200000,53.770000C123.289613,52.168794,123.449431,50.110189,122.620000,48.360000L122.380000,47.860000C121.852836,46.507759,120.621671,45.557454,119.180000,45.390000L97.280000,45.390000C96.973272,45.392667,96.678190,45.272685,96.460355,45.056729C96.242521,44.840772,96.119988,44.546740,96.120000,44.240000L96.120000,44.240000C96.120000,43.687715,96.567715,43.240000,97.120000,43.240000L123.770000,43.240000C125.220531,43.236568,126.580050,42.532598,127.420000,41.350000L127.840000,40.750000C128.131384,40.333674,128.288413,39.838163,128.290000,39.330000L128.290000,37.390000C128.299473,36.138367,127.839158,34.928702,127,34L126.380000,33.420000C125.607233,32.691088,124.582251,32.289696,123.520000,32.300000L97.520000,32.300000C96.967715,32.300000,96.520000,31.852285,96.520000,31.300000L96.520000,31.300000C96.517252,31.000381,96.635750,30.712377,96.848561,30.501450C97.061372,30.290522,97.350417,30.174589,97.650000,30.180000Z" fill="url(#ebc4lk76tjuw8-fill)" stroke="none" stroke-width="1"/><path id="ebc4lk76tjuw9" d="M81.460000,17.310000L89.820000,14.310000C90.618365,14.005579,91.356449,13.562051,92,13L92,13C92.920223,12.227487,93.559938,11.173011,93.820000,10L94,9.100000C94.066833,8.770871,94.100336,8.435846,94.100000,8.100000L94.100000,8.100000C94.100233,6.710314,93.639511,5.359799,92.790000,4.260000L92.790000,4.260000C92.177774,3.460966,91.358004,2.845274,90.420000,2.480000L90.140000,2.370000C88.647200,1.791255,87.020577,1.649056,85.450000,1.960000L70.450000,4.960000L66.800000,5.780000C66.289938,5.898364,65.788728,6.052068,65.300000,6.240000L62.300000,7.420000C61.669069,7.671219,61.054528,7.961790,60.460000,8.290000L58.920000,9.160000C58.380000,9.470000,57.850000,9.800000,57.340000,10.160000L55.520000,11.400000C54.980823,11.793811,54.472664,12.228421,54,12.700000L46.240000,20.160000C45.812531,20.578086,45.237932,20.811517,44.640000,20.810000L1.810000,20.810000L1.750000,55.260000C1.747305,55.560513,1.865492,55.849501,2.077995,56.062005C2.290499,56.274508,2.579487,56.392695,2.880000,56.390000L43.880000,56.390000L44.450000,56.390000C45.318634,56.445140,46.141626,56.798355,46.780000,57.390000L47.930000,58.480000L49,59.640000C50.991866,61.628742,53.131302,63.463977,55.400000,65.130000L55.400000,65.130000L57.240000,66.130000C58.943612,67.044408,60.719610,67.817017,62.550000,68.440000L62.550000,68.440000C64.177116,68.999033,65.850221,69.413963,67.550000,69.680000L70.620000,70.160000L70.620000,70.160000C71.472917,70.299566,72.335740,70.369796,73.200000,70.370000L108.530000,70.370000C110.105249,70.261647,111.634565,69.792931,113,69L113,69L113.550000,68.470000C114.195723,67.834144,114.691136,67.061982,115,66.210000L115.280000,65.450000L115.280000,65.450000C115.419361,64.153096,115.321087,62.841650,114.990000,61.580000L114.990000,61.580000L114.260000,60.390000C114.051323,60.035195,113.810297,59.700438,113.540000,59.390000L112.540000,58.250000" fill="none" stroke="rgb(255,255,255)" stroke-width="3.500000" stroke-linecap="round" stroke-miterlimit="10"/><path id="ebc4lk76tjuw10" d="M81.870000,18.070000L114.870000,18.070000C115.579867,18.071636,116.286258,18.169185,116.970000,18.360000L117.610000,18.540000C118.559709,18.808535,119.421954,19.322433,120.110000,20.030000L120.510000,20.450000C120.959853,20.916500,121.319267,21.462402,121.570000,22.060000L121.710000,22.410000C121.862386,22.766892,121.976361,23.138987,122.050000,23.520000L122.150000,23.990000C122.159812,24.129828,122.159812,24.270172,122.150000,24.410000L122.150000,24.410000C122.147338,25.087674,122.046284,25.761370,121.850000,26.410000L121.790000,26.590000C121.669205,27.001231,121.501432,27.397175,121.290000,27.770000L121.290000,27.770000C120.761113,28.688514,120.016276,29.464244,119.120000,30.030000L119.120000,30.030000C118.369570,30.506937,117.528635,30.823565,116.650000,30.960000L115.650000,31.110000C115.199896,31.178105,114.745225,31.211536,114.290000,31.210000L96.290000,31.210000" fill="none" stroke="rgb(255,255,255)" stroke-width="3.500000" stroke-linecap="round" stroke-miterlimit="10"/><path id="ebc4lk76tjuw11" d="M115.830000,31.240000L122.330000,31.240000C122.890400,31.242988,123.448168,31.316909,123.990000,31.460000L124.310000,31.550000L124.750000,31.820000C125.429521,32.238364,126.060109,32.731430,126.630000,33.290000L127.230000,33.870000L127.470000,34.270000C127.793182,34.806105,128.029441,35.390001,128.170000,36L128.230000,36.260000L128.370000,37.030000L128.370000,37.790000C128.370000,37.990000,128.370000,38.200000,128.370000,38.400000L128.280000,39.120000L128.010000,39.850000C127.899050,40.148586,127.754807,40.433718,127.580000,40.700000L126.930000,41.700000L126.670000,41.950000C125.847255,42.775180,124.868145,43.427920,123.790000,43.870000L123.790000,43.870000L123.330000,44.040000L122.500000,44.310000L96.500000,44.310000" fill="none" stroke="rgb(255,255,255)" stroke-width="3.500000" stroke-linecap="round" stroke-miterlimit="10"/><path id="ebc4lk76tjuw12" d="M118.620000,44.430000L120.790000,46.760000C121.212473,47.198263,121.551365,47.709990,121.790000,48.270000L121.790000,48.270000C122.063923,48.903067,122.219818,49.580873,122.250000,50.270000L122.250000,50.680000C122.280674,51.286345,122.199315,51.893151,122.010000,52.470000L122.010000,52.470000C121.848904,52.968895,121.620102,53.443321,121.330000,53.880000L120.750000,54.740000L120.540000,54.940000C119.751782,55.679324,118.854649,56.293152,117.880000,56.760000L117.350000,57.010000L116.750000,57.220000L96.370000,57.220000" fill="none" stroke="rgb(255,255,255)" stroke-width="3.500000" stroke-linecap="round" stroke-miterlimit="10"/></g><path id="ebc4lk76tjuw13" d="M122.100000,70.780000L120.360000,74.390000C120.073522,74.982956,119.739076,75.551514,119.360000,76.090000L117.180000,79.150000C116.879996,79.551806,116.545385,79.926570,116.180000,80.270000L111.860000,84.520000C111.391622,84.979841,111.047557,85.550989,110.860000,86.180000L110.860000,86.180000C110.708933,86.682860,110.631463,87.204941,110.630000,87.730000L110.630000,182.730000L69.630000,182.730000C69.291435,182.730010,68.966881,182.594835,68.728420,182.354497C68.489960,182.114159,68.357334,181.788554,68.360000,181.450000L68.360000,88.800000C68.361167,87.600684,68.119655,86.413532,67.650000,85.310000L67.650000,85.310000C67.463030,84.865206,67.191316,84.461032,66.850000,84.120000L61.380000,78.650000" fill="none" stroke="rgb(255,255,255)" stroke-width="3.500000" stroke-linecap="round" stroke-miterlimit="10"/><path id="ebc4lk76tjuw14" d="M133,63.280000L138.650000,57.690000C139.205604,57.133157,139.893919,56.727051,140.650000,56.510000L140.880000,56.450000C141.263420,56.338303,141.660643,56.281076,142.060000,56.280000L183.500000,56.280000C184.052285,56.280000,184.500000,55.832285,184.500000,55.280000L184.500000,20.810000L144.580000,20.890000L140.720000,20.820000C140.348831,20.814119,139.992834,20.671720,139.720000,20.420000L134,15C132.987236,14.043397,131.893105,13.176791,130.730000,12.410000L130.360000,12.170000C128.553872,10.978617,126.622276,9.989345,124.600000,9.220000L123.370000,8.760000C121.669094,8.112979,119.901595,7.656850,118.100000,7.400000L116,7.100000C114.896447,6.948424,113.783913,6.871583,112.670000,6.870000L111,6.870000C109.470171,6.870000,108.230000,8.110171,108.230000,9.640000L108.230000,12.270000" fill="none" stroke="rgb(255,255,255)" stroke-width="4" stroke-linecap="round" stroke-miterlimit="10"/></g><path id="ebc4lk76tjuw15" d="M139.840000,134.390000C139.840000,106.390000,161.240000,83.790000,192.440000,83.790000C220.840000,83.790000,242.640000,104.190000,242.640000,138.190000L242.640000,145.590000L177,145.590000C179,151.790000,186,157.790000,197.800000,157.790000C203.200000,157.790000,215.200000,155.190000,220,150.990000L234.800000,173.190000C225.200000,181.390000,208,185.190000,193.600000,185.190000C163.440000,185.190000,139.840000,166.190000,139.840000,134.390000ZM192.440000,111.190000C181.440000,111.190000,177.840000,118.390000,176.640000,122.790000L208.440000,122.790000C207.440000,118.590000,204,111.190000,192.440000,111.190000Z" transform="matrix(1 0 0 1 0 104.51000595092773)" fill="url(#ebc4lk76tjuw15-fill)" stroke="rgb(255,255,255)" stroke-width="3.500000" stroke-miterlimit="10"/><path id="ebc4lk76tjuw16" d="M311.840000,182.790000L311.840000,173.590000C306.440000,180.390000,286.640000,185.190000,282.640000,185.190000C268.240000,185.190000,249.440000,175.390000,249.440000,153.390000C249.440000,129.390000,268.240000,122.590000,282.640000,122.590000C295.240000,122.590000,306.640000,126.590000,311.840000,133.190000L311.840000,123.190000C311.840000,116.390000,305.640000,111.190000,293.840000,111.190000C284.840000,111.190000,274.640000,114.790000,267.040000,120.590000L254.840000,98.390000C267.840000,87.990000,285.840000,83.790000,300.440000,83.790000C324.440000,83.790000,347.840000,92.190000,347.840000,124.390000L347.840000,182.790000ZM311.840000,156.590000L311.840000,151.190000C309.440000,147.790000,303.240000,145.990000,297.640000,145.990000C291.640000,145.990000,285.040000,147.990000,285.040000,153.990000C285.040000,159.990000,291.640000,161.790000,297.640000,161.790000C303.240000,161.790000,309.440000,160,311.840000,156.590000Z" transform="matrix(1 0 0 1 0 103.50999832153320)" fill="url(#ebc4lk76tjuw16-fill)" stroke="rgb(255,255,255)" stroke-width="3.500000" stroke-miterlimit="10"/><path id="ebc4lk76tjuw17" d="M481.240000,182.790000L481.240000,126.390000C481.240000,120.590000,478.240000,115.590000,470.240000,115.590000C462.240000,115.590000,457.840000,120.390000,455.440000,123.190000L455.440000,182.790000L419.440000,182.790000L419.440000,126.390000C419.440000,120.590000,416.640000,115.590000,408.440000,115.590000C400.640000,115.590000,396.240000,120.390000,393.840000,123.190000L393.840000,182.790000L357.840000,182.790000L357.840000,86.190000L393.840000,86.190000L393.840000,97.190000C398.040000,91.790000,410.240000,83.790000,425.840000,83.790000C439.440000,83.790000,449.240000,88.790000,453.640000,100.790000C459.240000,92.390000,471.840000,83.790000,487.440000,83.790000C505.240000,83.790000,517.240000,92.790000,517.240000,112.790000L517.240000,182.790000Z" transform="matrix(1 0 0 1 0 100.70999526977539)" fill="url(#ebc4lk76tjuw17-fill)" stroke="rgb(255,255,255)" stroke-width="3.500000" stroke-miterlimit="10"/><path id="ebc4lk76tjuw18" d="M585.240000,125.790000L585.240000,164.390000L562,164.390000L562,125.790000L528.400000,125.790000L528.400000,104.790000L562,104.790000L562,67.790000L585.200000,67.790000L585.200000,104.790000L618.790000,104.790000L618.790000,125.790000Z" transform="matrix(0 0 0 0 573.59503173828125 116.09000015258789)" fill="url(#ebc4lk76tjuw18-fill)" stroke="rgb(255,255,255)" stroke-width="3.500000" stroke-miterlimit="10"/></g></g><script><![CDATA[!function(t,n){"object"==typeof exports&&"undefined"!=typeof module?module.exports=n():"function"==typeof define&&define.amd?define(n):(t=t||self).__SVGATOR_PLAYER__=n()}(this,(function(){"use strict";function t(n){return(t="function"==typeof Symbol&&"symbol"==typeof Symbol.iterator?function(t){return typeof t}:function(t){return t&&"function"==typeof Symbol&&t.constructor===Symbol&&t!==Symbol.prototype?"symbol":typeof t})(n)}function n(t,n){if(!(t instanceof n))throw new TypeError("Cannot call a class as a function")}function r(t,n){for(var r=0;r<n.length;r++){var e=n[r];e.enumerable=e.enumerable||!1,e.configurable=!0,"value"in e&&(e.writable=!0),Object.defineProperty(t,e.key,e)}}function e(t,n,e){return n&&r(t.prototype,n),e&&r(t,e),t}function i(t){return(i=Object.setPrototypeOf?Object.getPrototypeOf:function(t){return t.__proto__||Object.getPrototypeOf(t)})(t)}function o(t,n){return(o=Object.setPrototypeOf||function(t,n){return t.__proto__=n,t})(t,n)}function u(t,n){return!n||"object"!=typeof n&&"function"!=typeof n?function(t){if(void 0===t)throw new ReferenceError("this hasn't been initialised - super() hasn't been called");return t}(t):n}function a(t){var n=function(){if("undefined"==typeof Reflect||!Reflect.construct)return!1;if(Reflect.construct.sham)return!1;if("function"==typeof Proxy)return!0;try{return Date.prototype.toString.call(Reflect.construct(Date,[],(function(){}))),!0}catch(t){return!1}}();return function(){var r,e=i(t);if(n){var o=i(this).constructor;r=Reflect.construct(e,arguments,o)}else r=e.apply(this,arguments);return u(this,r)}}function l(t,n,r){return(l="undefined"!=typeof Reflect&&Reflect.get?Reflect.get:function(t,n,r){var e=function(t,n){for(;!Object.prototype.hasOwnProperty.call(t,n)&&null!==(t=i(t)););return t}(t,n);if(e){var o=Object.getOwnPropertyDescriptor(e,n);return o.get?o.get.call(r):o.value}})(t,n,r||t)}var f=Math.abs;function s(t){return t}function c(t,n,r){var e=1-r;return 3*r*e*(t*e+n*r)+r*r*r}function h(){var t=arguments.length>0&&void 0!==arguments[0]?arguments[0]:0,n=arguments.length>1&&void 0!==arguments[1]?arguments[1]:0,r=arguments.length>2&&void 0!==arguments[2]?arguments[2]:1,e=arguments.length>3&&void 0!==arguments[3]?arguments[3]:1;return t<0||t>1||r<0||r>1?null:f(t-n)<=1e-5&&f(r-e)<=1e-5?s:function(i){if(i<=0)return t>0?i*n/t:0===n&&r>0?i*e/r:0;if(i>=1)return r<1?1+(i-1)*(e-1)/(r-1):1===r&&t<1?1+(i-1)*(n-1)/(t-1):1;for(var o,u=0,a=1;u<a;){var l=c(t,r,o=(u+a)/2);if(f(i-l)<1e-5)break;l<i?u=o:a=o}return c(n,e,o)}}function v(){return 1}function y(t){return 1===t?1:0}function d(){var t=arguments.length>0&&void 0!==arguments[0]?arguments[0]:1,n=arguments.length>1&&void 0!==arguments[1]?arguments[1]:0;if(1===t){if(0===n)return y;if(1===n)return v}var r=1/t;return function(t){return t>=1?1:(t+=n*r)-t%r}}function g(t){var n=arguments.length>1&&void 0!==arguments[1]?arguments[1]:2;if(Number.isInteger(t))return t;var r=Math.pow(10,n);return Math.round(t*r)/r}var p=Math.PI/180;function m(t,n,r){return t>=.5?r:n}function w(t,n,r){return 0===t||n===r?n:t*(r-n)+n}function b(t,n,r){var e=w(t,n,r);return e<=0?0:e}function k(t,n,r){return 0===t?n:1===t?r:{x:w(t,n.x,r.x),y:w(t,n.y,r.y)}}function x(t,n,r){var e=function(t,n,r){return Math.round(w(t,n,r))}(t,n,r);return e<=0?0:e>=255?255:e}function A(t,n,r){return 0===t?n:1===t?r:{r:x(t,n.r,r.r),g:x(t,n.g,r.g),b:x(t,n.b,r.b),a:w(t,null==n.a?1:n.a,null==r.a?1:r.a)}}function _(t,n,r){if(0===t)return n;if(1===t)return r;var e=n.length;if(e!==r.length)return m(t,n,r);for(var i=[],o=0;o<e;o++)i.push(A(t,n[o],r[o]));return i}function S(t,n){for(var r=[],e=0;e<t;e++)r.push(n);return r}function O(t,n){if(--n<=0)return t;var r=(t=Object.assign([],t)).length;do{for(var e=0;e<r;e++)t.push(t[e])}while(--n>0);return t}var M,j=function(){function t(r){n(this,t),this.list=r,this.length=r.length}return e(t,[{key:"setAttribute",value:function(t,n){for(var r=this.list,e=0;e<this.length;e++)r[e].setAttribute(t,n)}},{key:"removeAttribute",value:function(t){for(var n=this.list,r=0;r<this.length;r++)n[r].removeAttribute(t)}},{key:"style",value:function(t,n){for(var r=this.list,e=0;e<this.length;e++)r[e].style[t]=n}}]),t}(),F=/-./g,P=function(t,n){return n.toUpperCase()};function I(t){return"function"==typeof t?t:m}function q(t){return t?"function"==typeof t?t:Array.isArray(t)?function(t){var n=arguments.length>1&&void 0!==arguments[1]?arguments[1]:s;if(!Array.isArray(t))return n;switch(t.length){case 1:return d(t[0])||n;case 2:return d(t[0],t[1])||n;case 4:return h(t[0],t[1],t[2],t[3])||n}return n}(t,null):function(t,n){var r=arguments.length>2&&void 0!==arguments[2]?arguments[2]:s;switch(t){case"linear":return s;case"steps":return d(n.steps||1,n.jump||0)||r;case"bezier":case"cubic-bezier":return h(n.x1||0,n.y1||0,n.x2||0,n.y2||0)||r}return r}(t.type,t.value,null):null}function B(t,n,r){var e=arguments.length>3&&void 0!==arguments[3]&&arguments[3],i=n.length-1;if(t<=n[0].t)return e?[0,0,n[0].v]:n[0].v;if(t>=n[i].t)return e?[i,1,n[i].v]:n[i].v;var o,u=n[0],a=null;for(o=1;o<=i;o++){if(!(t>n[o].t)){a=n[o];break}u=n[o]}return null==a?e?[i,1,n[i].v]:n[i].v:u.t===a.t?e?[o,1,a.v]:a.v:(t=(t-u.t)/(a.t-u.t),u.e&&(t=u.e(t)),e?[o,t,r(t,u.v,a.v)]:r(t,u.v,a.v))}function R(t,n){var r=arguments.length>2&&void 0!==arguments[2]?arguments[2]:null;return t&&t.length?"function"!=typeof n?null:("function"!=typeof r&&(r=null),function(e){var i=B(e,t,n);return null!=i&&r&&(i=r(i)),i}):null}function E(t,n){return t.t-n.t}function T(n,r,e,i,o){var u,a="@"===e[0],l="#"===e[0],f=M[e],s=m;switch(a?(u=e.substr(1),e=u.replace(F,P)):l&&(e=e.substr(1)),t(f)){case"function":if(s=f(i,o,B,q,e,a,r,n),l)return s;break;case"string":s=R(i,I(f));break;case"object":if((s=R(i,I(f.i),f.f))&&"function"==typeof f.u)return f.u(r,s,e,a,n)}return s?function(t,n,r){var e=arguments.length>3&&void 0!==arguments[3]&&arguments[3];if(e)return t instanceof j?function(e){return t.style(n,r(e))}:function(e){return t.style[n]=r(e)};if(Array.isArray(n)){var i=n.length;return function(e){var o=r(e);if(null==o)for(var u=0;u<i;u++)t[u].removeAttribute(n);else for(var a=0;a<i;a++)t[a].setAttribute(n,o)}}return function(e){var i=r(e);null==i?t.removeAttribute(n):t.setAttribute(n,i)}}(r,e,s,a):null}function z(n,r,e,i){if(!i||"object"!==t(i))return null;var o=null,u=null;return Array.isArray(i)?u=function(t){if(!t||!t.length)return null;for(var n=0;n<t.length;n++)t[n].e&&(t[n].e=q(t[n].e));return t.sort(E)}(i):(u=i.keys,o=i.data||null),u?T(n,r,e,u,o):null}function C(t,n,r){if(!r)return null;var e=[];for(var i in r)if(r.hasOwnProperty(i)){var o=z(t,n,i,r[i]);o&&e.push(o)}return e.length?e:null}function D(t,n){if(!n.duration||n.duration<0)return null;var r=function(t,n){if(!n)return null;var r=[];if(Array.isArray(n))for(var e=n.length,i=0;i<e;i++){var o=n[i];if(2===o.length){var u=null;if("string"==typeof o[0])u=t.getElementById(o[0]);else if(Array.isArray(o[0])){u=[];for(var a=0;a<o[0].length;a++)if("string"==typeof o[0][a]){var l=t.getElementById(o[0][a]);l&&u.push(l)}u=u.length?1===u.length?u[0]:new j(u):null}if(u){var f=C(t,u,o[1]);f&&(r=r.concat(f))}}}else for(var s in n)if(n.hasOwnProperty(s)){var c=t.getElementById(s);if(c){var h=C(t,c,n[s]);h&&(r=r.concat(h))}}return r.length?r:null}(t,n.elements);return r?function(t,n){var r=arguments.length>2&&void 0!==arguments[2]?arguments[2]:1/0,e=arguments.length>3&&void 0!==arguments[3]?arguments[3]:1,i=arguments.length>4&&void 0!==arguments[4]&&arguments[4],o=arguments.length>5&&void 0!==arguments[5]?arguments[5]:1,u=t.length,a=e>0?n:0;i&&r%2==0&&(a=n-a);var l=null;return function(f,s){var c=f%n,h=1+(f-c)/n;s*=e,i&&h%2==0&&(s=-s);var v=!1;if(h>r)c=a,v=!0,-1===o&&(c=e>0?0:n);else if(s<0&&(c=n-c),c===l)return!1;l=c;for(var y=0;y<u;y++)t[y](c);return v}}(r,n.duration,n.iterations||1/0,n.direction||1,!!n.alternate,n.fill||1):null}function N(t,n){if(M=n,!t||!t.root||!Array.isArray(t.animations))return null;var r=window.document.getElementById(t.root);if(!r)return null;var e=t.animations.map((function(t){return D(r,t)})).filter((function(t){return!!t}));return e.length?{element:r,animations:e,animationSettings:t.animationSettings,options:t.options||void 0}:null}var L=function(){function t(r,e){var i=arguments.length>2&&void 0!==arguments[2]?arguments[2]:{};n(this,t),this._id=0,this._running=!1,this._rollingBack=!1,this._animations=r,this.duration=e.duration,this.alternate=e.alternate,this.fill=e.fill,this.iterations=e.iterations,this.direction=i.direction||1,this.speed=i.speed||1,this.fps=i.fps||100,this.offset=i.offset||0,this.rollbackStartOffset=0}return e(t,[{key:"_rollback",value:function(){var t=this,n=1/0,r=null;this.rollbackStartOffset=this.offset,this._rollingBack||(this._rollingBack=!0,this._running=!0);this._id=window.requestAnimationFrame((function e(i){if(t._rollingBack){null==r&&(r=i);var o=i-r,u=t.rollbackStartOffset-o,a=Math.round(u*t.speed);if(a>t.duration&&n!=1/0){var l=!!t.alternate&&a/t.duration%2>1,f=a%t.duration;a=(f+=l?t.duration:0)||t.duration}var s=t.fps?1e3/t.fps:0,c=Math.max(0,a);if(c<n-s){t.offset=c,n=c;for(var h=t._animations,v=h.length,y=0;y<v;y++)h[y](c,t.direction)}var d=!1;if(t.iterations>0&&-1===t.fill){var g=t.iterations*t.duration,p=g==a;a=p?0:a,t.offset=p?0:t.offset,d=a>g}a>0&&t.offset>=a&&!d?t._id=window.requestAnimationFrame(e):t.stop()}}))}},{key:"_start",value:function(){var t=this,n=arguments.length>0&&void 0!==arguments[0]?arguments[0]:0,r=-1/0,e=null,i={},o=function o(u){t._running=!0,null==e&&(e=u);var a=Math.round((u-e+n)*t.speed),l=t.fps?1e3/t.fps:0;if(a>r+l&&!t._rollingBack){t.offset=a,r=a;for(var f=t._animations,s=f.length,c=0,h=0;h<s;h++)i[h]?c++:(i[h]=f[h](a,t.direction),i[h]&&c++);if(c===s)return void t._stop()}t._id=window.requestAnimationFrame(o)};this._id=window.requestAnimationFrame(o)}},{key:"_stop",value:function(){this._id&&window.cancelAnimationFrame(this._id),this._running=!1,this._rollingBack=!1}},{key:"play",value:function(){!this._rollingBack&&this._running||(this._rollingBack=!1,this.rollbackStartOffset>this.duration&&(this.offset=this.rollbackStartOffset-(this.rollbackStartOffset-this.offset)%this.duration,this.rollbackStartOffset=0),this._start(this.offset))}},{key:"stop",value:function(){this._stop(),this.offset=0,this.rollbackStartOffset=0;var t=this.direction,n=this._animations;window.requestAnimationFrame((function(){for(var r=0;r<n.length;r++)n[r](0,t)}))}},{key:"reachedToEnd",value:function(){return this.iterations>0&&this.offset>=this.iterations*this.duration}},{key:"restart",value:function(){this._stop(),this.offset=0,this._start()}},{key:"pause",value:function(){this._stop()}},{key:"reverse",value:function(){this.direction=-this.direction}}],[{key:"build",value:function(n,r){return(n=N(n,r))?{el:n.element,options:n.options||{},player:new t(n.animations,n.animationSettings,n.options)}:null}}]),t}();!function(){for(var t=0,n=["ms","moz","webkit","o"],r=0;r<n.length&&!window.requestAnimationFrame;++r)window.requestAnimationFrame=window[n[r]+"RequestAnimationFrame"],window.cancelAnimationFrame=window[n[r]+"CancelAnimationFrame"]||window[n[r]+"CancelRequestAnimationFrame"];window.requestAnimationFrame||(window.requestAnimationFrame=function(n){var r=Date.now(),e=Math.max(0,16-(r-t)),i=window.setTimeout((function(){n(r+e)}),e);return t=r+e,i},window.cancelAnimationFrame=window.clearTimeout)}();var V=/\.0+$/g;function $(t){return Number.isInteger(t)?t+"":t.toFixed(6).replace(V,"")}function G(t){return t?null==t.a||t.a>=1?"rgb("+t.r+","+t.g+","+t.b+")":"rgba("+t.r+","+t.g+","+t.b+","+t.a+")":"transparent"}var H={f:null,i:function(t,n,r){return 0===t?n:1===t?r:{x:b(t,n.x,r.x),y:b(t,n.y,r.y)}},u:function(t,n){return function(r){var e=n(r);t.setAttribute("rx",$(e.x)),t.setAttribute("ry",$(e.y))}}},Q={f:null,i:function(t,n,r){return 0===t?n:1===t?r:{width:b(t,n.width,r.width),height:b(t,n.height,r.height)}},u:function(t,n){return function(r){var e=n(r);t.setAttribute("width",$(e.width)),t.setAttribute("height",$(e.height))}}},U=Math.sin,Y=Math.cos,Z=Math.acos,J=Math.asin,K=Math.tan,W=Math.atan2,X=Math.PI/180,tt=180/Math.PI,nt=Math.sqrt,rt=function(){function t(){var r=arguments.length>0&&void 0!==arguments[0]?arguments[0]:1,e=arguments.length>1&&void 0!==arguments[1]?arguments[1]:0,i=arguments.length>2&&void 0!==arguments[2]?arguments[2]:0,o=arguments.length>3&&void 0!==arguments[3]?arguments[3]:1,u=arguments.length>4&&void 0!==arguments[4]?arguments[4]:0,a=arguments.length>5&&void 0!==arguments[5]?arguments[5]:0;n(this,t),this.m=[r,e,i,o,u,a],this.i=null,this.w=null,this.s=null}return e(t,[{key:"point",value:function(t,n){var r=this.m;return{x:r[0]*t+r[2]*n+r[4],y:r[1]*t+r[3]*n+r[5]}}},{key:"translateSelf",value:function(){var t=arguments.length>0&&void 0!==arguments[0]?arguments[0]:0,n=arguments.length>1&&void 0!==arguments[1]?arguments[1]:0;if(!t&&!n)return this;var r=this.m;return r[4]+=r[0]*t+r[2]*n,r[5]+=r[1]*t+r[3]*n,this.w=this.s=this.i=null,this}},{key:"rotateSelf",value:function(){var t=arguments.length>0&&void 0!==arguments[0]?arguments[0]:0;if(t%=360){var n=U(t*=X),r=Y(t),e=this.m,i=e[0],o=e[1];e[0]=i*r+e[2]*n,e[1]=o*r+e[3]*n,e[2]=e[2]*r-i*n,e[3]=e[3]*r-o*n,this.w=this.s=this.i=null}return this}},{key:"scaleSelf",value:function(){var t=arguments.length>0&&void 0!==arguments[0]?arguments[0]:1,n=arguments.length>1&&void 0!==arguments[1]?arguments[1]:1;if(1!==t||1!==n){var r=this.m;r[0]*=t,r[1]*=t,r[2]*=n,r[3]*=n,this.w=this.s=this.i=null}return this}},{key:"skewSelf",value:function(t,n){if(n%=360,(t%=360)||n){var r=this.m,e=r[0],i=r[1],o=r[2],u=r[3];t&&(t=K(t*X),r[2]+=e*t,r[3]+=i*t),n&&(n=K(n*X),r[0]+=o*n,r[1]+=u*n),this.w=this.s=this.i=null}return this}},{key:"resetSelf",value:function(){var t=arguments.length>0&&void 0!==arguments[0]?arguments[0]:1,n=arguments.length>1&&void 0!==arguments[1]?arguments[1]:0,r=arguments.length>2&&void 0!==arguments[2]?arguments[2]:0,e=arguments.length>3&&void 0!==arguments[3]?arguments[3]:1,i=arguments.length>4&&void 0!==arguments[4]?arguments[4]:0,o=arguments.length>5&&void 0!==arguments[5]?arguments[5]:0,u=this.m;return u[0]=t,u[1]=n,u[2]=r,u[3]=e,u[4]=i,u[5]=o,this.w=this.s=this.i=null,this}},{key:"recomposeSelf",value:function(){var t=arguments.length>0&&void 0!==arguments[0]?arguments[0]:null,n=arguments.length>1&&void 0!==arguments[1]?arguments[1]:null,r=arguments.length>2&&void 0!==arguments[2]?arguments[2]:null,e=arguments.length>3&&void 0!==arguments[3]?arguments[3]:null,i=arguments.length>4&&void 0!==arguments[4]?arguments[4]:null;return this.isIdentity||this.resetSelf(),t&&(t.x||t.y)&&this.translateSelf(t.x,t.y),n&&this.rotateSelf(n),r&&(r.x&&this.skewSelf(r.x,0),r.y&&this.skewSelf(0,r.y)),!e||1===e.x&&1===e.y||this.scaleSelf(e.x,e.y),i&&(i.x||i.y)&&this.translateSelf(i.x,i.y),this}},{key:"decompose",value:function(){var t=arguments.length>0&&void 0!==arguments[0]?arguments[0]:0,n=arguments.length>1&&void 0!==arguments[1]?arguments[1]:0,r=this.m,e=r[0]*r[0]+r[1]*r[1],i=[[r[0],r[1]],[r[2],r[3]]],o=nt(e);if(0===o)return{origin:{x:r[4],y:r[5]},translate:{x:t,y:n},scale:{x:0,y:0},skew:{x:0,y:0},rotate:0};i[0][0]/=o,i[0][1]/=o;var u=r[0]*r[3]-r[1]*r[2]<0;u&&(o=-o);var a=i[0][0]*i[1][0]+i[0][1]*i[1][1];i[1][0]-=i[0][0]*a,i[1][1]-=i[0][1]*a;var l=nt(i[1][0]*i[1][0]+i[1][1]*i[1][1]);if(0===l)return{origin:{x:r[4],y:r[5]},translate:{x:t,y:n},scale:{x:o,y:0},skew:{x:0,y:0},rotate:0};i[1][0]/=l,i[1][1]/=l,a/=l;var f=0;return i[1][1]<0?(f=Z(i[1][1])*tt,i[0][1]<0&&(f=360-f)):f=J(i[0][1])*tt,u&&(f=-f),a=W(a,nt(i[0][0]*i[0][0]+i[0][1]*i[0][1]))*tt,{origin:{x:r[4],y:r[5]},translate:{x:t,y:n},scale:{x:o,y:l},skew:{x:a,y:0},rotate:f}}},{key:"toString",value:function(){return null===this.s&&(this.s="matrix("+this.m.map(it).join(" ")+")"),this.s}},{key:"determinant",get:function(){var t=this.m;return t[0]*t[3]-t[1]*t[2]}},{key:"isIdentity",get:function(){if(null===this.i){var t=this.m;this.i=1===t[0]&&0===t[1]&&0===t[2]&&1===t[3]&&0===t[4]&&0===t[5]}return this.i}}]),t}(),et=/\.0+$/;function it(t){return Number.isInteger(t)?t:t.toFixed(14).replace(et,"")}Object.freeze({M:2,L:2,Z:0,H:1,V:1,C:6,Q:4,T:2,S:4,A:7});function ot(t,n,r){return t+(n-t)*r}function ut(t,n,r){var e=arguments.length>3&&void 0!==arguments[3]&&arguments[3],i={x:ot(t.x,n.x,r),y:ot(t.y,n.y,r)};return e&&(i.a=at(t,n)),i}function at(t,n){return Math.atan2(n.y-t.y,n.x-t.x)}function lt(t,n,r,e){var i=1-e;return i*i*t+2*i*e*n+e*e*r}function ft(t,n,r,e){return 2*(1-e)*(n-t)+2*e*(r-n)}function st(t,n,r,e){var i=arguments.length>4&&void 0!==arguments[4]&&arguments[4],o={x:lt(t.x,n.x,r.x,e),y:lt(t.y,n.y,r.y,e)};return i&&(o.a=ct(t,n,r,e)),o}function ct(t,n,r,e){return Math.atan2(ft(t.y,n.y,r.y,e),ft(t.x,n.x,r.x,e))}function ht(t,n,r,e,i){var o=i*i;return i*o*(e-t+3*(n-r))+3*o*(t+r-2*n)+3*i*(n-t)+t}function vt(t,n,r,e,i){var o=1-i;return 3*(o*o*(n-t)+2*o*i*(r-n)+i*i*(e-r))}function yt(t,n,r,e,i){var o=arguments.length>5&&void 0!==arguments[5]&&arguments[5],u={x:ht(t.x,n.x,r.x,e.x,i),y:ht(t.y,n.y,r.y,e.y,i)};return o&&(u.a=dt(t,n,r,e,i)),u}function dt(t,n,r,e,i){return Math.atan2(vt(t.y,n.y,r.y,e.y,i),vt(t.x,n.x,r.x,e.x,i))}function gt(t,n,r){var e=arguments.length>3&&void 0!==arguments[3]&&arguments[3];if(mt(n)){if(wt(r))return st(n,r.start,r,t,e)}else if(mt(r)){if(n.end)return st(n,n.end,r,t,e)}else{if(n.end)return r.start?yt(n,n.end,r.start,r,t,e):st(n,n.end,r,t,e);if(r.start)return st(n,r.start,r,t,e)}return ut(n,r,t,e)}function pt(t,n,r){var e=gt(t,n,r,!0);return e.a=function(t){var n=arguments.length>1&&void 0!==arguments[1]&&arguments[1];return n?t+Math.PI:t}(e.a)/p,e}function mt(t){return!t.type||"corner"===t.type}function wt(t){return null!=t.start&&!mt(t)}var bt=new rt;var kt={f:$,i:w},xt={f:$,i:function(t,n,r){var e=w(t,n,r);return e<=0?0:e>=1?1:e}};function At(t,n,r,e,i,o,u,a){return n=function(t,n,r){for(var e,i,o,u=t.length-1,a={},l=0;l<=u;l++)(e=t[l]).e&&(e.e=n(e.e)),e.v&&"g"===(i=e.v).t&&i.r&&(o=r.getElementById(i.r))&&(a[i.r]=o.querySelectorAll("stop"));return a}(t,e,a),function(e){var i,o=r(e,t,_t);return o?"c"===o.t?G(o.v):"g"===o.t?(n[o.r]&&function(t,n){for(var r=0,e=t.length;r<e;r++)t[r].setAttribute("stop-color",G(n[r]))}(n[o.r],o.v),(i=o.r)?"url(#"+i+")":"none"):"none":"none"}}function _t(t,n,r){if(0===t)return n;if(1===t)return r;if(n&&r){var e=n.t;if(e===r.t)switch(n.t){case"c":return{t:e,v:A(t,n.v,r.v)};case"g":if(n.r===r.r)return{t:e,v:_(t,n.v,r.v),r:n.r}}}return m(t,n,r)}var St={fill:At,"fill-opacity":xt,stroke:At,"stroke-opacity":xt,"stroke-width":kt,"stroke-dashoffset":{f:$,i:w},"stroke-dasharray":{f:function(t){var n=arguments.length>1&&void 0!==arguments[1]?arguments[1]:" ";return t&&t.length?t.map($).join(n):""},i:function(t,n,r){var e,i,o,u=n.length,a=r.length;if(u!==a)if(0===u)n=S(u=a,0);else if(0===a)a=u,r=S(u,0);else{var l=(o=(e=u)*(i=a)/function(t,n){for(var r;n;)r=n,n=t%n,t=r;return t||1}(e,i))<0?-o:o;n=O(n,Math.floor(l/u)),r=O(r,Math.floor(l/a)),u=a=l}for(var f=[],s=0;s<u;s++)f.push(g(b(t,n[s],r[s]),6));return f}},opacity:xt,transform:function(n,r,e,i){if(!(n=function(n,r){if(!n||"object"!==t(n))return null;var e=!1;for(var i in n)n.hasOwnProperty(i)&&(n[i]&&n[i].length?(n[i].forEach((function(t){t.e&&(t.e=r(t.e))})),e=!0):delete n[i]);return e?n:null}(n,i)))return null;var o=function(t,i,o){var u=arguments.length>3&&void 0!==arguments[3]?arguments[3]:null;return n[t]?e(i,n[t],o):r&&r[t]?r[t]:u};return r&&r.a&&n.o?function(t){var r=e(t,n.o,pt);return bt.recomposeSelf(r,o("r",t,w,0)+r.a,o("k",t,k),o("s",t,k),o("t",t,k)).toString()}:function(t){return bt.recomposeSelf(o("o",t,gt,null),o("r",t,w,0),o("k",t,k),o("s",t,k),o("t",t,k)).toString()}},r:kt,"#size":Q,"#radius":H,_:function(t,n){if(Array.isArray(t))for(var r=0;r<t.length;r++)this[t[r]]=n;else this[t]=n}};return function(t){!function(t,n){if("function"!=typeof n&&null!==n)throw new TypeError("Super expression must either be null or a function");t.prototype=Object.create(n&&n.prototype,{constructor:{value:t,writable:!0,configurable:!0}}),n&&o(t,n)}(u,t);var r=a(u);function u(){return n(this,u),r.apply(this,arguments)}return e(u,null,[{key:"build",value:function(t){var n=l(i(u),"build",this).call(this,t,St),r=(n.el,n.options,n.player);return function(t){t.play()}(r),r}}]),u}(L)}));
__SVGATOR_PLAYER__.build({"root":"ebc4lk76tjuw1","animations":[{"duration":10000,"direction":1,"iterations":1,"fill":1,"alternate":false,"elements":{"ebc4lk76tjuw4":{"transform":{"data":{"t":{"x":-93.3349769115448,"y":-92.1847995519638}},"keys":{"o":[{"t":0,"v":{"x":93,"y":277,"type":"corner"}},{"t":200,"v":{"x":93.0418721139431,"y":244,"type":"corner"}},{"t":700,"v":{"x":93.3349769115448,"y":92.1847995519638,"type":"corner"}},{"t":3660,"v":{"x":93.3349769115448,"y":92.1847995519638,"type":"corner"}},{"t":3800,"v":{"x":99.58502197457325,"y":92.1847995519638,"type":"corner"}},{"t":4000,"v":{"x":175,"y":92.1847995519638,"type":"corner"}},{"t":4200,"v":{"x":267,"y":92.1847995519638,"type":"corner"}},{"t":4300,"v":{"x":307,"y":92.1847995519638,"type":"corner"}},{"t":4400,"v":{"x":311,"y":92.1847995519638,"type":"corner"}}],"r":[{"t":0,"v":0},{"t":800,"v":0}]}}},"ebc4lk76tjuw7":{"transform":{"data":{"t":{"x":152.6050477027893,"y":-36.24480092525482}},"keys":{"o":[{"t":5200,"v":{"x":-152.6050477027893,"y":36.24480092525482,"type":"corner"}},{"t":5600,"v":{"x":-160,"y":36.24480092525482,"type":"corner"}},{"t":6000,"v":{"x":-152.6,"y":36.24480092525482,"type":"corner"}},{"t":7100,"v":{"x":-152.6050477027893,"y":36.24480092525482,"type":"corner"}},{"t":7500,"v":{"x":-160,"y":36.24480092525482,"type":"corner"}},{"t":7900,"v":{"x":-152.6,"y":36.24480092525482,"type":"corner"}},{"t":9100,"v":{"x":-152.6050477027893,"y":36.24480092525482,"type":"corner"}},{"t":9500,"v":{"x":-160,"y":36.24480092525482,"type":"corner"}},{"t":9900,"v":{"x":-152.6,"y":36.24480092525482,"type":"corner"}}]}}},"ebc4lk76tjuw15":{"transform":{"data":{"t":{"x":-191.23999786376953,"y":-134.48999404907227}},"keys":{"o":[{"t":200,"v":{"x":191.23999786376953,"y":239,"type":"corner"}},{"t":400,"v":{"x":191.23999786376953,"y":232,"type":"corner"}},{"t":800,"v":{"x":191.23999786376953,"y":146,"type":"corner"}},{"t":900,"v":{"x":191.23999786376953,"y":138,"type":"corner"}},{"t":1100,"v":{"x":191.23999786376953,"y":134.48999404907227,"type":"corner"}}]}},"opacity":[{"t":3200,"v":1},{"t":3500,"v":1},{"t":3600,"v":0.94},{"t":3900,"v":0.14},{"t":4100,"v":0}]},"ebc4lk76tjuw16":{"transform":{"data":{"t":{"x":-298.6399917602539,"y":-134.4900016784668}},"keys":{"o":[{"t":400,"v":{"x":298.6399917602539,"y":238,"type":"corner"}},{"t":600,"v":{"x":298.6399917602539,"y":224,"type":"corner"}},{"t":1000,"v":{"x":298.6399917602539,"y":142,"type":"corner"}},{"t":1100,"v":{"x":298.6399917602539,"y":135,"type":"corner"}},{"t":1300,"v":{"x":298.6399917602539,"y":134.4900016784668,"type":"corner"}}]}},"opacity":[{"t":3200,"v":1},{"t":3400,"v":1},{"t":3500,"v":0.94},{"t":3800,"v":0.14},{"t":4000,"v":0}]},"ebc4lk76tjuw17":{"transform":{"data":{"t":{"x":-437.5399932861328,"y":-133.2900047302246}},"keys":{"o":[{"t":600,"v":{"x":437.5399932861328,"y":234,"type":"corner"}},{"t":800,"v":{"x":437.5399932861328,"y":227,"type":"corner"}},{"t":1200,"v":{"x":437.5399932861328,"y":144,"type":"corner"}},{"t":1300,"v":{"x":437.5399932861328,"y":137,"type":"corner"}},{"t":1500,"v":{"x":437.5399932861328,"y":133.2900047302246,"type":"corner"}}]}},"opacity":[{"t":3200,"v":1},{"t":3300,"v":1},{"t":3400,"v":0.94},{"t":3700,"v":0.14},{"t":3900,"v":0}]},"ebc4lk76tjuw18":{"transform":{"data":{"o":{"x":573.5950317382812,"y":116.09000015258789,"type":"corner"},"t":{"x":-573.5950317382812,"y":-116.09000015258789}},"keys":{"r":[{"t":1200,"v":25},{"t":1300,"v":6},{"t":1500,"v":0}],"s":[{"t":1200,"v":{"x":0,"y":0}},{"t":1300,"v":{"x":0.5,"y":0.5}},{"t":1400,"v":{"x":0.85,"y":0.85}},{"t":1500,"v":{"x":1,"y":1}}]}},"opacity":[{"t":3200,"v":1},{"t":3300,"v":0.94},{"t":3600,"v":0.14},{"t":3800,"v":0}]}}}],"options":{"start":"load","hover":"freeze","click":"freeze","scroll":25,"exportedIds":"unique","title":"Asset 18"},"animationSettings":{"duration":10000,"direction":1,"iterations":1,"fill":1,"alternate":false}})]]></script></svg>