<svg xmlns="http://www.w3.org/2000/svg" xmlns:xlink="http://www.w3.org/1999/xlink" viewBox="0 0 190.75 188.97"><defs><style>.cls-1{fill:url(#linear-gradient);}.cls-2{fill:url(#linear-gradient-2);}.cls-3{fill:url(#linear-gradient-3);}.cls-4{fill:none;stroke:#fff;stroke-linecap:round;stroke-miterlimit:10;stroke-width:8px;}</style><linearGradient id="linear-gradient" x1="93.34" y1="69.79" x2="93.34" y2="185.04" gradientUnits="userSpaceOnUse"><stop offset="0" stop-color="#7f4300"/><stop offset="0.07" stop-color="#bd5014"/><stop offset="0.22" stop-color="#f15a24"/><stop offset="1" stop-color="#f15a24"/></linearGradient><linearGradient id="linear-gradient-2" x1="104.13" y1="43.53" x2="187.74" y2="28.79" gradientUnits="userSpaceOnUse"><stop offset="0" stop-color="#5b4300"/><stop offset="0.16" stop-color="#c15318"/><stop offset="0.54" stop-color="#f15a24"/><stop offset="0.94" stop-color="#f15a24"/></linearGradient><linearGradient id="linear-gradient-3" x1="67.36" y1="73.12" x2="67.36" y2="3.75" gradientUnits="userSpaceOnUse"><stop offset="0.09" stop-color="#ffca2a"/><stop offset="1" stop-color="#f5af19"/></linearGradient></defs><title>Asset 17</title><g id="Layer_2" data-name="Layer 2"><g id="Layer_7" data-name="Layer 7"><path class="cls-1" d="M121.37,78.6a17.19,17.19,0,0,1-1.56,2l-5.31,5.7A7.2,7.2,0,0,0,113,90.69v91.75a2.6,2.6,0,0,1-2.6,2.6H72.88a2.16,2.16,0,0,1-2.16-2.16V90.58A6.1,6.1,0,0,0,69,86.33l-5.4-5.56-2.71-11h64.9Z"/><path class="cls-2" d="M112,9.18h4.75A19.26,19.26,0,0,1,124.89,11l4.83,2.24A32.72,32.72,0,0,1,138.25,19l3.62,3.4a2.67,2.67,0,0,0,1.83.73h40.79a2.68,2.68,0,0,1,2.68,2.68l0,29.82a2.68,2.68,0,0,1-2.68,2.68H144.14a2.68,2.68,0,0,0-1.91.8l-6.69,6.81a3.88,3.88,0,0,1-.31.26h0c-3.76,2.82-6.49,6.12-11.75,6.94l-4.82-.19h-9.34V11.86A2.68,2.68,0,0,1,112,9.18Z"/><path class="cls-3" d="M99.9,32.43l20.89,0a3.89,3.89,0,0,0,3.46-2.15l.25-.58c.45-.9.33-1.36.38-2.82l-.39-2.61A4.52,4.52,0,0,0,121.55,21h0a3.14,3.14,0,0,0-1.1-.19l-35.67-.2a1,1,0,0,1-.94-.94V19a1.06,1.06,0,0,1,.82-1l9.11-2.2a3.7,3.7,0,0,0,2.75-2.81l.39-1.55a4.32,4.32,0,0,0-.83-3.79l-1.46-2a4.17,4.17,0,0,0-2.72-1.68l-.11,0A8.73,8.73,0,0,0,88.6,4L69.45,7.76a13.81,13.81,0,0,0-4.08,1.5L61.1,11.64a12.47,12.47,0,0,0-2.24,1.59L50,21.53a4.52,4.52,0,0,1-3,1.21l-42.79.39-.06.06V56.75a2,2,0,0,0,2,2H46.25a4.27,4.27,0,0,1,2.7.95l6.24,5.64a31.09,31.09,0,0,0,12.43,6.85l.43.11a36.91,36.91,0,0,0,7,.86h36c.13,0,1.33-.19,1.46-.2a5.68,5.68,0,0,0,4.4-2.52h0c.14-.17-.11.19,0,0,1.46-2.44,1.44-3.09.84-6.45h0a3.71,3.71,0,0,0-3.93-3.11l-14.15-.07a1.12,1.12,0,0,1-1.12-1.08h0a1.12,1.12,0,0,1,1.12-1.17l21.87-.08c.57,0,1-.19,2-1.08L124.5,56a5.46,5.46,0,0,0,.42-5.41l-.24-.5a3.92,3.92,0,0,0-3.2-2.47l-21.9,0a1.15,1.15,0,0,1-1.16-1.15h0a1,1,0,0,1,1-1h26.65a4.49,4.49,0,0,0,3.65-1.89l.42-.6a2.49,2.49,0,0,0,.45-1.42V39.64a5,5,0,0,0-1.34-3.41l-.62-.58a4.11,4.11,0,0,0-2.86-1.12l-26,0a1,1,0,0,1-1-1h0A1.11,1.11,0,0,1,99.9,32.43Z"/><path class="cls-4" d="M124.35,73l-1.74,3.61a12.09,12.09,0,0,1-1,1.7l-2.18,3.06a8.59,8.59,0,0,1-1,1.12l-4.32,4.25a3.88,3.88,0,0,0-1,1.66h0a5.44,5.44,0,0,0-.23,1.55v95h-41a1.27,1.27,0,0,1-1.27-1.28l0-92.65a8.89,8.89,0,0,0-.71-3.49h0a3.72,3.72,0,0,0-.8-1.19l-5.47-5.47"/><path class="cls-4" d="M135.21,65.53l5.65-5.59a4.63,4.63,0,0,1,2-1.18l.23-.06a4.26,4.26,0,0,1,1.18-.17h41.44a1,1,0,0,0,1-1V23.06l-39.92.08L143,23.07a1.51,1.51,0,0,1-1-.4l-5.73-5.43A24,24,0,0,0,133,14.65l-.37-.24a29.53,29.53,0,0,0-5.76-2.95L125.62,11a24.58,24.58,0,0,0-5.27-1.35l-2.07-.3A24.73,24.73,0,0,0,115,9.12h-1.68a2.77,2.77,0,0,0-2.77,2.77v2.63"/><path class="cls-4" d="M83.71,19.56l8.36-3a7.23,7.23,0,0,0,2.17-1.25h0a5.46,5.46,0,0,0,1.83-3.06l.18-.9a5,5,0,0,0,.1-1h0A6.28,6.28,0,0,0,95,6.46h0a5.5,5.5,0,0,0-2.37-1.78l-.28-.11a8.44,8.44,0,0,0-4.69-.41l-15,3L69,8a11.29,11.29,0,0,0-1.5.46l-3,1.18a16.23,16.23,0,0,0-1.84.87l-1.54.87c-.54.31-1.07.64-1.58,1l-1.82,1.29A13.05,13.05,0,0,0,56.2,15l-7.76,7.46a2.28,2.28,0,0,1-1.6.65H4.06L4,57.51a1.12,1.12,0,0,0,1.13,1.13h41l.57,0a3.78,3.78,0,0,1,2.33,1l1.15,1.09,1.07,1.08a55.82,55.82,0,0,0,6.4,5.49h0l1.84,1a35.23,35.23,0,0,0,5.31,2.31h0a29.36,29.36,0,0,0,5,1.24l3.07.48h0a16,16,0,0,0,2.58.21h35.33a10.31,10.31,0,0,0,4.52-1.37h0l.55-.53a6.08,6.08,0,0,0,1.44-2.23l.28-.76h0a10.73,10.73,0,0,0-.29-3.87h0l-.73-1.19a6.68,6.68,0,0,0-.72-1l-1-1.14"/><path class="cls-4" d="M84.12,20.32h33a7.88,7.88,0,0,1,2.1.29l.64.18a5.62,5.62,0,0,1,2.5,1.49l.4.42a5.24,5.24,0,0,1,1.06,1.61l.14.35a5.47,5.47,0,0,1,.34,1.11l.1.47a3,3,0,0,1,0,.42h0a7,7,0,0,1-.3,2l-.06.18a5.58,5.58,0,0,1-.5,1.18h0a6.52,6.52,0,0,1-2.17,2.26h0a6.45,6.45,0,0,1-2.47.93l-1,.15a8.89,8.89,0,0,1-1.36.1h-18"/><path class="cls-4" d="M118.08,33.49h6.5a6.64,6.64,0,0,1,1.66.22l.32.09.44.27a10.7,10.7,0,0,1,1.88,1.47l.6.58.24.4a5.93,5.93,0,0,1,.7,1.73l.06.26.14.77V40c0,.2,0,.41,0,.61l-.09.72-.27.73a4.24,4.24,0,0,1-.43.85l-.65,1-.26.25A8.76,8.76,0,0,1,126,46.1h0l-.46.17-.83.27h-26"/><path class="cls-4" d="M120.87,46.68,123,49a5,5,0,0,1,1,1.51h0a5.66,5.66,0,0,1,.46,2l0,.41a4.94,4.94,0,0,1-.24,1.79h0a5.73,5.73,0,0,1-.68,1.41L123,57l-.21.2A10.55,10.55,0,0,1,120.13,59l-.53.25-.6.21H98.62"/></g></g></svg>